<mxfile host="app.diagrams.net" modified="2022-01-01T15:27:11.639Z" agent="5.0 (Windows NT 10.0; Win64; x64) AppleWebKit/537.36 (KHTML, like Gecko) Chrome/96.0.4664.110 Safari/537.36 Edg/96.0.1054.62" etag="-xUerx0nLZq8TfqRTVHs" version="16.1.2" type="github">
  <diagram id="1hjNPuB7j7eeclbYp27W" name="Page-1">
    <mxGraphModel dx="1422" dy="892" grid="1" gridSize="10" guides="1" tooltips="1" connect="1" arrows="1" fold="1" page="1" pageScale="1" pageWidth="850" pageHeight="1100" math="0" shadow="0">
      <root>
        <mxCell id="0" />
        <mxCell id="1" parent="0" />
        <mxCell id="arPhIB6SrukMf69pgUsO-10" value="Kenwood" style="edgeStyle=orthogonalEdgeStyle;rounded=0;orthogonalLoop=1;jettySize=auto;html=1;exitX=0.5;exitY=1;exitDx=0;exitDy=0;entryX=0.5;entryY=1;entryDx=0;entryDy=0;fontColor=default;startArrow=block;startFill=1;endArrow=block;endFill=1;" edge="1" parent="1" source="arPhIB6SrukMf69pgUsO-1" target="arPhIB6SrukMf69pgUsO-2">
          <mxGeometry relative="1" as="geometry">
            <Array as="points">
              <mxPoint x="140" y="440" />
              <mxPoint x="355" y="440" />
            </Array>
          </mxGeometry>
        </mxCell>
        <mxCell id="arPhIB6SrukMf69pgUsO-1" value="OmniRig" style="label;whiteSpace=wrap;html=1;image=img/clipart/Gear_128x128.png" vertex="1" parent="1">
          <mxGeometry x="70" y="320" width="140" height="60" as="geometry" />
        </mxCell>
        <mxCell id="arPhIB6SrukMf69pgUsO-2" value="Virtual COM port pair" style="label;whiteSpace=wrap;html=1;image=img/clipart/Gear_128x128.png" vertex="1" parent="1">
          <mxGeometry x="285" y="320" width="140" height="60" as="geometry" />
        </mxCell>
        <mxCell id="arPhIB6SrukMf69pgUsO-8" value="Radio 1 (FT-757GX)" style="edgeStyle=orthogonalEdgeStyle;rounded=0;orthogonalLoop=1;jettySize=auto;html=1;exitX=1;exitY=0.5;exitDx=0;exitDy=0;entryX=0;entryY=0.5;entryDx=0;entryDy=0;entryPerimeter=0;fontColor=default;" edge="1" parent="1" source="arPhIB6SrukMf69pgUsO-3" target="arPhIB6SrukMf69pgUsO-6">
          <mxGeometry relative="1" as="geometry" />
        </mxCell>
        <mxCell id="arPhIB6SrukMf69pgUsO-9" value="Radio 2 (Kenwood)" style="edgeStyle=orthogonalEdgeStyle;rounded=0;orthogonalLoop=1;jettySize=auto;html=1;exitX=0.5;exitY=1;exitDx=0;exitDy=0;entryX=0.5;entryY=0;entryDx=0;entryDy=0;fontColor=default;" edge="1" parent="1" source="arPhIB6SrukMf69pgUsO-3" target="arPhIB6SrukMf69pgUsO-2">
          <mxGeometry relative="1" as="geometry" />
        </mxCell>
        <mxCell id="arPhIB6SrukMf69pgUsO-3" value="Commander" style="label;whiteSpace=wrap;html=1;image=img/clipart/Gear_128x128.png" vertex="1" parent="1">
          <mxGeometry x="285" y="140" width="140" height="60" as="geometry" />
        </mxCell>
        <mxCell id="arPhIB6SrukMf69pgUsO-11" value="Rig 2" style="edgeStyle=orthogonalEdgeStyle;rounded=0;orthogonalLoop=1;jettySize=auto;html=1;exitX=0.5;exitY=1;exitDx=0;exitDy=0;entryX=0.5;entryY=0;entryDx=0;entryDy=0;fontColor=default;startArrow=block;startFill=1;endArrow=block;endFill=1;" edge="1" parent="1" source="arPhIB6SrukMf69pgUsO-4" target="arPhIB6SrukMf69pgUsO-1">
          <mxGeometry relative="1" as="geometry" />
        </mxCell>
        <mxCell id="arPhIB6SrukMf69pgUsO-4" value="Log4OM" style="label;whiteSpace=wrap;html=1;image=img/clipart/Gear_128x128.png" vertex="1" parent="1">
          <mxGeometry x="70" y="70" width="140" height="60" as="geometry" />
        </mxCell>
        <mxCell id="arPhIB6SrukMf69pgUsO-5" value="FT-757GX" style="html=1;verticalLabelPosition=bottom;align=center;labelBackgroundColor=none;verticalAlign=top;strokeWidth=2;strokeColor=#0080F0;shadow=0;dashed=0;shape=mxgraph.ios7.icons.radio;fontColor=default;" vertex="1" parent="1">
          <mxGeometry x="700" y="140" width="120" height="50" as="geometry" />
        </mxCell>
        <mxCell id="arPhIB6SrukMf69pgUsO-6" value="COM10 (Physical)&lt;br&gt;(4800,8,N,2)" style="pointerEvents=1;verticalLabelPosition=bottom;shadow=0;dashed=0;align=center;html=1;verticalAlign=top;shape=mxgraph.electrical.miscellaneous.small_d_connector;labelBackgroundColor=none;fontColor=default;" vertex="1" parent="1">
          <mxGeometry x="580" y="156.25" width="70" height="27.5" as="geometry" />
        </mxCell>
        <mxCell id="arPhIB6SrukMf69pgUsO-7" value="" style="endArrow=classic;html=1;rounded=0;fontColor=default;exitX=1;exitY=0.5;exitDx=0;exitDy=0;exitPerimeter=0;entryX=0;entryY=0.6;entryDx=0;entryDy=0;entryPerimeter=0;" edge="1" parent="1" source="arPhIB6SrukMf69pgUsO-6" target="arPhIB6SrukMf69pgUsO-5">
          <mxGeometry width="50" height="50" relative="1" as="geometry">
            <mxPoint x="400" y="470" as="sourcePoint" />
            <mxPoint x="709" y="420" as="targetPoint" />
          </mxGeometry>
        </mxCell>
        <mxCell id="arPhIB6SrukMf69pgUsO-12" value="COM2 (4800,8,N,2)" style="text;html=1;strokeColor=none;fillColor=none;align=center;verticalAlign=middle;whiteSpace=wrap;rounded=0;labelBackgroundColor=none;fontColor=default;" vertex="1" parent="1">
          <mxGeometry x="365" y="400" width="60" height="30" as="geometry" />
        </mxCell>
        <mxCell id="arPhIB6SrukMf69pgUsO-13" value="COM1&lt;br&gt;(4800,8,N,2)" style="text;html=1;strokeColor=none;fillColor=none;align=center;verticalAlign=middle;whiteSpace=wrap;rounded=0;labelBackgroundColor=none;fontColor=default;" vertex="1" parent="1">
          <mxGeometry x="285" y="280" width="60" height="30" as="geometry" />
        </mxCell>
        <mxCell id="arPhIB6SrukMf69pgUsO-14" value="" style="shape=image;verticalLabelPosition=bottom;labelBackgroundColor=default;verticalAlign=top;aspect=fixed;imageAspect=0;image=data:image/png,iVBORw0KGgoAAAANSUhEUgAAAe4AAADrCAYAAACvrXVRAAAAAXNSR0IArs4c6QAAAARnQU1BAACxjwv8YQUAAAAJcEhZcwAADsMAAA7DAcdvqGQAABlZSURBVHhe7d3Nddu8EoBh+zbgFJA+UkAacAfee/WtU0DW3yr7dOAGUkD6SAF2Bb53Es3NeAyA4A8oDPA+5+CYBECIGIEcS1ai2+fn59cbAAAQwn8uPwEAQAAkbgAAAiFxAwAQCIkbAIBASNwAAARC4gYAIBASNwAAgZC4AQAIZPN/wPLvh38vW2/98/zPZest7Z9rP0vqvP055c517ZyFP2br/GvjV+q35fwBAH3ZnbjtTb82uVxL7TkvzaN2nr5f7XF7lB4j1bb1nM6YCwDgvenfKpfEk0pkwm4fwT8WAABrNUvckvS02H27nSpWrs3X5bYj0PP15+3rSu22fq/cuKk64fcBAG29e6v86enpsvXe/f39ZSt/w9ZXlNqe2q/Z9kr9toyRUhrXWhrH0r7KHlN6vFKbVzrO0jYv9xilcXOPU1o/AIDtHh4ebl5eXtKJWxpT5ACVu3Gr2iSQ2xa6b5X6pdqsUpsojWstjZOTG9+T9qVzSR2bOs4qtYnSY5barLu7u8sWAOAo379/X07cNkmnHJUEarbF1jar1Ca03fP9l8bJ8cetOVe7v6bNKrWJNeMujQUAOI7NzUN8OG1PMpFjtAg51hahbWvZcWus7Q8AmE+3idsmzTXJTI9L8WPquKVj9kjNwT7WUntO6rgjrDkf2xcAcJ7Nb5X3ZinRAAAQ1VBvlde8OgQAYBThE7ckay0AAIxuiA+nAQAwCxI3AACBkLgBAAiExA0AQCAkbgAAAiFxAwAQCIkbAIBASNwAAARC4gYAIBASNwAAgZC4AQAIhMQNAEAgTRL3hw8f3pU97PF7xzqCndfR59PD/Fqqnd+eOFw7hvL4vqyxtv+ItsZuBHbuqfn7dtun1DaKpTmuaY+q2Svu5+fnN2VNkCIEdOvcMAe7PtauEekvZl1XMu9c7GaJSW7+Quv9ttI6LSPGrDRHrfPbQvppnZSosen+rXINrPy024gpdbGk9u3FhrnNvhYiJ5jeRV1bV0ncsgi1qNS+0MDKT7vdM51Laj7Kt/n++CsVn9y+retV6lztvq+3P4XdnpGPhRZl62w9MIpmidtfPJpsdVuL7CubkO12j1JzUzo3KXZ+KXq8Frzl42PjqfHqMYZyTrbY87LnKm0qde6putFpXLR4GhONqxYfy1T9DDRuWiQGo9k6R10PWqI67W/co7Fz8wtghIXRko2Z/EztR6drQ4slc9SCNBs74rSOjd2o8dszx63H9YS/cR9Mzs0uDMBifQDYq/vErTc3e6OLfsPr+RePs8hzqEkstY+3ND4zxIjr4y2ui+OMsrZOT9z2BpRbkNqnZ7k5+PkpW1/TH3/4+NjYqUgxXHOu2tdKzX80PkZ2zjYmpX65+iiin3+vSmsmktv/nfjrZfu3p6enm4eHh5uXl5dLDYAecBOvQ5wwIpubu3+rHJhd9FcHAI5F4gY6JwmbpF2PWGF0JG4AAAIhcQMAEMjhH06T43u294N3vc+vtdHjx/rYZ/b4sX7KiE9ZKT4yd21vkrh//vx52evLly9fbj5+/Lh74fQ6v9ZGjx/rY5/Z48f6KSM+ZUvxkbk3T9zfvn271Bzj169fl61tvn79eujCOXp+rY0eP9bHPrPHj/VTRnzKzoiPzF1zc6i/ccuktpQfP35cRphbKjY1JUr8UudeU1gff6RiU1NGiV9qbjVllvWTmntNIT7lsiU+4T6cJr9trC34KxWfpRJJ6vyXCv5KxWepjCQ1v6Uyk9T8l8pMUvNfKlvwqXIAAAI5NXHf3t5etv6SOi0j8PPIzW9t/ehGnndqTrM9v3uNvD5q2PmnYmDrUu2js7FJzd/WpdqjOSVxl4L5+vr6/xI9oP78c/NbWz+6GeY9y3PZwqzXhfLz9zHQdr89ixnjc0ri1mACwFrcO4C3Qv+NW798IVXOFvE3uVTctIwgNS8tZ5O1YV8FeNKmRem2rxda5+uPlIqblhmk5q2lN3YdtFwTViouWnozWnxCJ+7clwn08iUDerPW0lti7yV+reLU+/pQOmctsq9sm9aX+h+px/jp3M8QZf0IGxPi895o8QmduIUPwjUWTe5mctYNdo+e4tciTj3MT22ZmxyTIuNoaamn+Mlcc/Fopaf594j4lLWKT/jELTQY11w09iba+mZ6tB7i11JP8zvqFxMZx5aWeojfNZK26mn99Ij4lLWIzxCJW1xz0fgb6LVuMHuMftGNPL8zflG8ZvyumbTV6NfHXsSn7Oj4XDVxy8UoF6WWiAmvJDe/tfWjm23efn5r5z9bvISdr5SZ+OdbygzPea0Z43Nq4k4FU+q0jMDPIze/tfWjG3neqTn5utT8U31Uqv+o7FxnmbNXmr/d922zsLHxMbD7vi2qYd4qBwBgBqG+1nPPt8zIOc3+tY0jx4/1sc/s8WP9lBGfsjPiI3MP933cj4+Pl63tZr4xjx4/1sc+s8eP9VNGfMrOiI/MvWni/vz582WvP0csnJ7n19ro8WN97DN7/Fg/ZcSnrBQfmXuzxH13d3fZ6teehRNhfq2NHj/Wxz6zx4/1U0Z8ynLxaZq4AQDAsWxu5lPlAAAEQuIGACAQEjcAAIGQuAEACCT54TQAANCX7KfK+ecsAAD0KZm4AQBAv/gbNwAAgZC4AQAIhMQNAEAgJG4AAAIhcQMAEAiJGwCAQEjcAAAEQuIGACAQEjcAAIGQuAEACITEDQBAICRuAAACIXEDABAIiRsAgEBI3AAABELiBgAgEBI3AACB3D4/P79etlf798O/l60//nn+57J1fXpuLc/Jz1/4x8udR+pYUTrfo+JdG5tSvy3nDwDYb/MrbntT15t17mY+Ij//tTGwxwi/7x0Z76XHWkPH2nNOcszWuQDAbA57q/zIZBCVj4FNRkcnJuINAHPa/Fa5JqJS8vDJKpfURE1bKvmVjhO5Y1P1Uqf7ftsrtancY1o144g9j2frpc6PtXRc6jFTbWvHFVLn9wEAee8S99PT02Xrvfv7+8vWH7kbs8jdxO2Nemub8H1Lx3m1x9WOkVIa11oax9K+yh5TerxSm1c6ztI2L/cYpXFzj1NaiwAwm4eHh5uXl5d04pbGFDkgJ3cz9lI3bqt0U9/aJnTfWjumVWoTpXGtpXFycuN70r50LqljU8dZpTZResxSm3V3d3fZAoC5ff/+fTlxl5J0Su3NWKxps/vXbrNKbULbPd9/aZwcf9yac7X7a9qsUptYM+7SWAAwO5ubd32qXG+4NUr9147V0p5kovOwx9oits7TjltjbX8AQAybE7dNRJogtE6U2re2laSOU6W2ktLj+jF13Jpz3SI1B/tYS+05qeOOsOZ8bF8AQNlhb5WPZCnRAABwpkPeKh9RzatDAACuicRtSLLWAgBAj0jcAAAEQuIGACAQEjcAAIGQuAEACITEDTTw4cOHN8XL1fkSQZTzxBhYbyRu4HByY3l+fn5Tam422tdvH4mbHmbQwzpveQ4kbuAENglrYieJAtiCxA0EIwnfFpXbt3Wits+aeuAadB2m1qTd1/ZUnd8Wum/rhK23bak6UdNnCxI3cCK5aO3b4VsvYjlWix1Dx9bH2dJnbT1wTXZd2jUp+6K0brWPWOrv6y1bnxo/N+ZWJG4ARXrzAXpUsz4lUWppoWb8mj61SNzAyY68gAEss692j/5FVK7jmrFtn1K/GiRu4ASaqP3FK6X3BM4vGBhJD+t57zkc/rWecvwaM3yFqI/J/f39ZQuj8hemJmj56fn6XD+VGlukxlG58Ut91FK9HQ9oza9fvz5TbbKtcu1+HJWrF6nxRe4xlB2zls3NTRL3z58/L3tlX758ufn48eOwiVsTto/Hp0+ffv9cSuB+MYjSE66LxC6WM5z9eLMj3sD1nX0dnpK4v337dqnJ+/XrVzFxS2C8rYHKBblV8O0vMD4Wj4+Pv39KfSnOa89N+7eaE/rA8wucT6476+xr0Obmq/yN+/b29rK1TIJjSzSpX2CkTt5tALaIeB0A0fWUi05P3GuSdlQ17zrIOw3yjsPd3d2lZh357U9LSapfzbbSY7Uou29/+nrdVr6PsPu+HgDwVtPE7ZP0kUnb3uj9DV7rauvVUvs1pM5Jtu1vfrnzre23JDeG7Hu2X+6YXD0AYFnTv3Fron59fX2TtGVfrP0bt725a5vWaaLwtN63+/pc+xY1r7hFzfxT55A719xPtdTP9xe+LtW3VJfatmqPi0Kee8xrz70Ty0a/vkrrx+bmUxK3pUlbbE1cwrf5G74l9bn+9qdn+69hY1AyW+K2daL2uEj0ucd8Rv9XMj0Y+fpaWj82Nzf/VHnqlbZqkbi31vv2vXwcvKW5i9w51c4l189vC7+vcv1SY6Xq7LatE6V6YeuiWHre0Se5Hvf4+vUrifsEvV5fZ6wfm5ubfzhNk7VP2r3T5LGHPBGpJ3Tvk6zJTksuwdX2W3LEGMKfT8mexwG2kJvmlvLjx4/LCJhZam3UlC3r55RPle9J2vZGv3SzF6XkYOt9YvDH7U0c8p+r6BMjidoWrV/6zbx0DtKmRem2r/P9xNK+lRojtb3ULmTbFq0DeiDX5NoCqNT6WCpbNEnc+kpzqSzxN3l7g7fbwrfZkqsTftu376FPjCZqm7C3PmEjO+qXJgDzkD/H2uLZulR7RIcnbnkP3ieqUpmBJuqICfvMJHrkL0098TeLnm8eo9zYMAdZr/KOri12DWu7347u8MTtk1RNAWYx0s0DwHWc8jduACRt4Br8K/ARkLiBE5SStrRpUbqdqxelbS3W2vrZ2Q+r+oI47HV35i/OqXWjZS8SN3BFkizlZqLFJk/bVptUc+PV1uOv3Oct+PAkarRcPyRu4AQ2WXpSr8UqJVJNuLkxcQx/kyVpY41W64fEDZwkl2il3hb0RW+2JG1s0WL9kLiBE+WSt1p6Ba3Ha4L3+2iDpN0nXf+29HgtHL1+SNwnkP9j1hbMTW82dvuom05uvNp6IBpZw7ZYdt+3RUbibkgTtfyn+LbUJvAjPn2YsnXcVuczutQNw99QtCh/TG2bkH0tVk29bwPQHxJ3IzZhyzfZ2KL1d3d3l94x8HYhAFzf4V/riT80cee+fk7+r3b5L19LcZZXuC2SZatxsfy8o09yPe75li95zvlaz/Z6vb7OWD82N5O4G6hdXEvJu5Rg7dvWtk9NvfDj5tq1XvZlW38qu2/H9H1Eaixht6Mjccf0+Ph42dqOxN1er9fXGeuHxN1Y68Tt65f61fTP9bH1pTq/bW09LiJ57j9//nzZw2xI3G2Nfn2RuK/ojMTt2SRoSb0fJzVuro+tL9Wltq3a46KL9rkFHI97ZzszXF8k7is5I3HX1Ot+rt6qObZUZ7dtnag9DgCQZnMznypv4P7+/ubTp0/Fv3ssJe01JPFFo4mcpA0A65C4G5IPG0iC9lJ1OZrctAib9KRo4vP1Klfv2T57kmnt44k9jwMAM+Kt8ob07zE+UcsrbdFTjPcm6y2u8ZgAEBFvlZ9EAixFErUtWj8rfSVO0gaA9UjcJ9BE3XPCPjOJymORtAFgGxI3AACBkLgBAAiExA0AQCAkbgAAAiFxAwAQCIkbAIBASNwAAATC/5x2AompJf+XOebk18ISrkUAwuZmEndDepOWbwqz5AtIxFICT/0/36X/uET/N7Kj/1eypfGOeryt4xw935ZkTfj1kLP0xfoyb6/meTo6XkvjtXp+SuOm2lqdxx65c9J6+elpf9+2dW6t4mLPr2Z8O+cW5xMdifsE9gbtv95TvzVM6ktxXruAWyz8mjGPerwjz7tXui6WvvJVbP3a15ya53KtmjGPfDxr7WPWnOsR1oyf67t0rqn6NY9rbT2uxI9Z8xhbjpmJzc38jbux1A1a6uTVFIDj6Q1ffvYudZ4jJiwS8LFI3A2kXlXd3t7+LkpeSckrKv0GsbXk4tZSkupXs630xlJ74UlfLdbaemXbbR+7b3/6et1Wvo+w+74+Kp3T0hxS/Wq21dr14cmxWqy19WvZ41Nj2n370/YRWpeqV7k+Z/Hnovz5pM5R62y9bvv6Wnpc7nhbl2oHifsUNmHb7RqpBS7bcqPUklvctf2OUnq8VL3vn2P7+DE92y93TK4+IpmDFiXbuXlatf1aKT1+qt73T9E+wh7raR8/pu2vfYTt5/vk6kVp/FpyjJZW7Hnq49g6f+6p/pbWa/H02NzxStrxHom7c3aBH00umKULx/cp9RXSrsXK1Z+tl/M4SrT14Ul/LVauvoWax8rFt+bYpT4+fv6xZF/LHjp26jxyY0tfLVbNueg55x4T25G4T/D6+vfzf3Y7Er34li5Ye7FqXz3O1l1DL+cxIolnzfrw7POhx+59nuR4LTXsY615vNrztH1K/XoU+dxHRuJuQP6Zl/yTL/30uJCEbZP20ieGW5ILUG86qf2j1N44e6KxaBGPKPx68Put7F0veo6+rBl37zksyY2v5yk/j+bH3vpYa2Kzpi/WI3E3JJ8clwTtperW0AtPS+4CrO1XYsfQ7Zzc4/l6lav3bB8dc4vaxxN7Hufa/Dxzc6ntV2LH0O0U7aNF5B7f16tc/Vr2PHPnUGPpPO22ljXjl/hxjxxb7Tn3pWNLbUrHwHv8O+6G9BPjPlHLK21BjJeVLuxWWj7mkf+OG4joGtf0CPh33CeRAEuRm68tWo++yA3ljJuKvhOzVAAghVfcwIm2/Lt9rkUAvOIGrkTfbVlTAMAicQMAEAiJGwCAQEjcAAAEQuIGACAQEjcAAIGQuAEACITEDQBAICRuAAACIXEDABAIiRsAgEBI3AAABELiBgAgEBI3AACBkLgBAAiExA0AQCAkbgAAAiFxAwAQCIkbAIBAmiTuDx8+vCt72OP3jnUEO6+jz6eH+bVUO789cbh2DOXxfVljbf8RbY3dCOzcU/P37bZPqW0US3Nc0x5Vs1fcz8/Pb8qaIEUI6Na5YQ52faxdI9JfzLquZN652M0Sk9z8hdb7baV1WkaMWWmOWue3hfTTOilRY9P9W+UaWPlptxFT6mJJ7duLDXObfS1ETjC9i7q2rpK4ZRFqUal9oYGVn3a7ZzqX1HyUb/P98VcqPrl9W9er1LnafV9vfwq7PSMfCy3K1tl6YBTNEre/eDTZ6rYW2Vc2IdvtHqXmpnRuUuz8UvR4LXjLx8fGU+PVYwzlnGyx52XPVdpU6txTdaPTuGjxNCYaVy0+lqn6GWjctEgMRrN1jroetER12t+4R2Pn5hfACAujJRsz+Znaj07XhhZL5qgFaTZ2xGkdG7tR47dnjluP6wl/4z6YnJtdGIDF+gCwV/eJW29u9kYX/YbX8y8eZ5HnUJNYah9vaXxmiBHXx1tcF8cZZW2dnrjtDSi3ILVPz3Jz8PNTtr6mP/7w8bGxU5FiuOZcta+Vmv9ofIzsnG1MSv1y9VFEP/9eldZMJLf/O/HXy/ZvT09PNw8PDzcvLy+XGgA94CZehzhhRDY3d/9WOTC76K8OAByLxA10ThI2SbsescLoSNwAAARC4gYAIJDDP5wmx/ds7wfvep9fa6PHj/Wxz+zxY/2UEZ+yUnxk7treJHH//PnzsteXL1++3Hz8+HH3wul1fq2NHj/Wxz6zx4/1U0Z8ypbiI3Nvnri/fft2qTnGr1+/LlvbfP369dCFc/T8Whs9fqyPfWaPH+unjPiUnREfmbvm5lB/45ZJbSk/fvy4jDC3VGxqSpT4pc69prA+/kjFpqaMEr/U3GrKLOsnNfeaQnzKZUt8wn04TX7bWFvwVyo+SyWS1PkvFfyVis9SGUlqfktlJqn5L5WZpOa/VLbgU+UAAARyauK+vb29bI3Lz1H2tVhr60c38rxTc5rt+d1r5PVRw84/FQNbl2ofnY3NDPM/JXHPEkw/R9l/fX39f9H2tfWjm2HeszyXLcx6XSg/fx8Dbffbs1iKz4hOSdwaTABYi3sH8Fbov3Hrly+kytki/qabipuWEaTmpeVsS68CpE2L0m1fL7TO1x8pFTctM0jNW0tv7DpouSasVFy09ETj0fp68VJx0bJX6MSd+zKBXr5kQG/WWnpL7L3Er1Wcel8fSuesRfaVbdP6Uv8j9Rg/nfsZoqwfYWNCfN5LXUettYxP6MQtfBCusWhyNxO7WM5cMGv0FL8WcephfmrL3OSYFBlHS0s9xU/mmotHKz3Nv0dR4nP2ulGt4hM+cQsNxjUXjb2Jtr6ZHq2H+LXU0/yO+sVExrGlpR7id42krXpaPz0iPmUt4jNE4hbXXDT+BnqtG8weo190I8/vjF8Urxm/ayZtNfr1sRfxKTs6PsMk7h7JzUZuOlpsYl9TP7rZ5u3nt3b+s8VL2PlKmYl/vqXM8JzXmjE+pybuGRabn6Psa7HW1o9u5Hmn5uTrUvNP9VGp/qOyc51lzl5p/nbft83CxsbHYGk/Il5xAwAQSKiv9dzzLTNyTrN/bePI8WN97DN7/Fg/ZcSn7Iz4yNzDfR/34+PjZWu7mW/Mo8eP9bHP7PFj/ZQRn7Iz4iNzb5q4P3/+fNnrzxELp+f5tTZ6/Fgf+8weP9ZPGfEpK8VH5t4scd/d3V22+rVn4USYX2ujx4/1sc/s8WP9lBGfslx8miZuAABwLJub+VQ5AACBkLgBAAiExA0AQCDJv3EDAIC+ZD+cxqdiAQDoUzJxAwCAfvE3bgAAAiFxAwAQCIkbAIBASNwAAIRxc/NfaiNOG73ChOYAAAAASUVORK5CYII=;" vertex="1" parent="1">
          <mxGeometry x="520" y="280" width="494" height="235" as="geometry" />
        </mxCell>
        <mxCell id="arPhIB6SrukMf69pgUsO-15" value="Settings" style="shape=flexArrow;endArrow=classic;html=1;rounded=0;fontColor=default;entryX=0;entryY=0;entryDx=0;entryDy=0;" edge="1" parent="1" target="arPhIB6SrukMf69pgUsO-14">
          <mxGeometry width="50" height="50" relative="1" as="geometry">
            <mxPoint x="430" y="200" as="sourcePoint" />
            <mxPoint x="450" y="420" as="targetPoint" />
          </mxGeometry>
        </mxCell>
        <mxCell id="arPhIB6SrukMf69pgUsO-16" value="" style="shape=image;verticalLabelPosition=bottom;labelBackgroundColor=default;verticalAlign=top;aspect=fixed;imageAspect=0;image=data:image/png,iVBORw0KGgoAAAANSUhEUgAAALkAAAEgCAYAAADos9JjAAAAAXNSR0IArs4c6QAAAARnQU1BAACxjwv8YQUAAAAJcEhZcwAADsMAAA7DAcdvqGQAAA4USURBVHhe7dzRkdy2EoVh6b6r7ACcjQPRu0NwAArB787ACTgA5+EApAh8t0t7pF4IIAGwyekB/6+qyyTI4Ywuz+BihyTef/78+b93wML+9/pfYFmEHMsj5FgeIcfyCDmWR8ixPEKO5RFyLI+LQYP++uuv1yVk8vHjx3dfvnx5XXuLkA+ykP/zzz+va8jg999/f/fLL78Q8igK+R9//PHagiP+/fff16U5nz592g05Y3I8nAV0pv7+++/XI2wj5EjBeuHR6kXIsbyukP/8888/lFeu38379+9fl74q1zPJ/NnO0t2Tv/yB+qZ8sG291+pfCAvRf//xt3wmDFcCEfCcQkLue2db9lWjdr/dt/nyWu0ZbAXctqlEy612s7Ws8kbbs/LnuawZ3SEv36w2RFG7qmVveOOPYcc05bHVnp0Fy8Kv8kHz23oD2Dpeb/szsPNb02rfEzImv4q9pyobH6yStau8rdApnK1jrq4MdLk+4qnG5P5LduQffZZWKK3dF/roHB891w8NuX149cyj/5CMvblpBV32ema9Xl+Gcv1uIjqz0JD70LZCqH288h/ij6Ft5bHL12Tig65l1dGwto7X235HXSGvBcq3lcuqlq1tpnWMVvujKVCeb7NllZSv6d1mbF3l9bSX2+4gtCf3Pe1eb9uzDxCBW20HcattLLvVtvduwho7F9xPHoyQx/rtt99el+YR8mAW8l9//fV1DVkQ8kA//fTT6xKyIeS4rae64gnMIORYHiHH8gg5lkfIsTxCjuXxE+IguxiEfJgLMZAu6yMPLusH496VWMyFiFuwgM4UcyHiqVgvPFq9CDmW1xVy/7SPCm/55yjLZyn3ttW02k3rWKjr7slf/kB9UyNBX/1LYWErn6NUALe2zSiPd+RYd8Fw5SQWwF5lULeCO3JcfBUS8towprYO9FB2ajWjO+Tlm9mQRe2tYYz2MX4Zb/lhh4YjPUb2fSatrMxmaHpMjsdaNeBSZuxI5hiTJ6HevCe4qwdcFOyjnSohP4kF8Qx3CbhEjBoOh9w+RG2s7mmfVakX9qUgbm0r9Ya3PB62dYV879tk21VSvmbvGM/OAurL29tWs9VeFrYxXMHyuNV2ELfaxmIuxIQIeSzmQkzIQs5ciPkQ8kDMhZgXIcdt8esKlkfIsTxCjuURciyPkGN5hBzL4yfEQXYxCPkwF2IgXdZHHlzWD8a9K7GYCxG3YAGdKeZCxFOxXni0ehFyLK8r5P4ZzuhnNVd79rN85rL1LOZoO+Z19+Qvf6B+qwzBzPjlqAXWP4up7aPtOIbhCpYXEnINY3zvWva05bZyf6/c1tq/Z5+rqBfGcf5cljWjO+T+jWzI4o0MZfR6VYvf5vf3x9c+5TH3PsNVNORQ8SXoo/NaarXvCRmT27rqDD3H79nnLK0Aq11l6+hTBno24ObwcMVC5b8A0XqP7/fZ2u8s6q21jON0Ho+ez0v+8Ly6d736/XxvrXXEiOiwDo/JbdlvE9/es3/L3vH9ssq/3yNpiKLyX4KRdhzTFXILja9Sa7tfr7X77V7Z1tq/XC63P0IZTFtXeaPtmHfJcAV4JG61HcSttrGYCzEhQh6LuRATspAzF2I+hDwQcyHmRchxW/y6guURciyPkGN5hBzLI+RYHiHH8vgJcZBdDEI+zIUYSJf1kQeX9YNx70os5kLELVhAZ4q5EPFUrBcerV6EHMvrCrl/ftLqLK1jn/meUfyzmciluyd/+QP1W/WGLiqc9p4ma9j10LGKoOcyNVwZCTrwaGFjcgu9yvPrrX282j5by34da9B5rdWMsJC3hjMaapjWPt7ePtZubNvWflfSEEXFdBLH6ByXWu17Tu/JvZ59evlwz/7jozAmj1ee0yPnOCTkFjb7EKqann1G2XEivjDISTk5mpepkCuwj+R7cYK+roicdYfcgqQq31hBU4kPYGufkt+n9T5+ubbf1RiT59YVcguRr5rWPuVybR9pbd9a9uuP5MfkyCXsD08gK261HcSttrGYCzEhQh6LuRATspAzF2I+hDwQcyHmRchxW/y6guURciyPkGN5hBzLI+RYHiHH8vgJcZBdDEI+zIUYSJf1kQeX9YNx70os5kLELVhAZ4q5EPFUrBcerV6EHMvrCrmepfQ1YnT/Z1ObgoJpKfLo7slf/kB9UyPBtf3NymEn1HkxXMHyQkKuIYzvqf162e7/a/zys9K0FC22TSVaLtuN2sr2O7A8tGpGd8jLN9MQxLSGMX4fqbWtzoLqp6zwwfXb1L61/x20MjKbnekxuefDf2czgbTX1NhxVHdUZqxcH3F4uKJevRb+O4rqedWLq+5IeTqaq4f94WkfXL0/X45td+3NTUQ2Dofch9Vqi/b1Vgx42fPauh9+7PXMo/tjW1fI94Jo232pTVrLq6iFsGyzdZXU9pHa/pjzkOGKev0VA498uNV2ELfaxmIuxIQIeSzmQkzIQs5ciPkQ8kDMhZgXIcdtPexiEHAVQo7lEXIsj5BjeYQcyyPkWB4/IQ6yi0HIh7kQA+myPvLgsn4w7l2JxVyIuAUL6EwxFyKeivXCo9WLkGN53SHX0zzlM5pRWsc96/2i+WcykUtXyC1oL3+gfisfvLNDaO9nModdDxurCHouU8MVBQ9f8bBxbiFj8rJnV4lv8+2l2j5by34d69C5rdWMrpBriNJ6Iz+ksGWV37fV7u3tY+3Gv0/rWI+ioQvm6TyXWu17untyhSpDsPxnmP2Hn4GAxynP65HzHDJceYQMXzaPgMdTsI92ZF0hzzYk8L14hs9GwM9zNOBmakzu39gHbWu/Vru3tU/rfVrHupoF3RfymBqTl3xba79Wu/jtfp+tZb/+SNaLl4U8nnZMDvTiVttB3Gobi7kQEyLksZgLMSELOXMh5kPIAzEXYl6EHLfFrytYHiHH8gg5lkfIsTxCjuURciyPnxAH2cUg5MNciIF0WR95cFk/GPeuxGIuRNyCBXSmmAsRT8V64dHq1RVyPWrmyxvZDlytuyd/Gbu/KR9YtZXLxvZTm9WKQa890+nb9p755JnQc10+XPFfgLvgmc/HYkyO5XWHXGNqVW+PrCGK6o7KoYsvr9Z2Rz4vZc0IGZPvmX3dM/HBbQXV2lvTVvhtrdffheWkptW+h+FKEB9eq1Ezr1lZGejZgJvTQ75qz43zKdhHAm5OD7l9QI2nrI5+YNxLRF66Ql57o942Y+2qO7Mhicbsdx93X4kxeYDaeNq3lcsq8cumXMcxhPxCvhe3IszX4FbbQdxqG4u5EBMi5LGYCzEhCzlzIeZDyAMxF2JehBy3xa8rWB4hx/IIOZZHyLE8Qo7lEXIsj58QB9nFIOTDXIiBdFkfeXBZPxj3rsRiLkTcggV0ppgLEU/FeuHR6tUVcv+MplWp3O732doGXKG7J38Zu3+rMqhqL5dFbarVgl57XtO31bZ7e9txzNRwZcWgnonH3B6LMTmWd0nINRZX2f8T3Ek5dPHl1druqMyLrxmXhNyPx1cd6vjgtoJq7TZ0UXl+W+v1d9HqBFvtexiuBPHhtRo185qVlYGeDbiZCrn1xEfeFOihjB3NWnfI/biIgOMqEVnrCrm9ka+W2rbetjuwIYnG7Hcfd1+JMXmA2njat5XLKvHLplzHMYT8Qr4XtyLM1+BW20HcahuLuRATIuSxmAsxIQs5cyHmQ8gDMRdiXoQct8WvK1geIcfyCDmWR8ixPEKO5RFyLI+fEAfZxSDkw1yIgXRZH3lwWT8Y967kYfe92Hmwm7y2Qs6YHClYUEfqzz//fH3lPkKOND58+NBdI7pC7p/vVO3RPrV9e17/TPyDEN5oO34UkZXunvxl7P6mjry5vX7LM30JLKh6nM1KwR1tx4+Ug6N5YLhykAUV8cpgHwl6SMjtA6h6aD//3/K1vccyer1e45el1oY87BE4++XKqnWerF37jOgOuUKi0pBDy7PDGP96/1pbH+GPUR6v9R7RNBTBOLuYo/LDubL8fr2mx+RRIo/VYu+hcJ/1fgT8mNrPhFvFT4gVPujRCHiM2k+FrRpxi5D7Xjw66AQ8np2jVs04HHIFRxUxHPBhLP9h5XoP/xkjPl/Jgu7LWPB9m74IrXZ81zpHs+euK+R7B7ftKtFy7bWtbXuvb4W09jpTLtdee5SFtCyptZlWO74rz9WRc/dUw5UzQoq8dL6Pnvfb/OGJ5xTRsXGr7SButT3HyE+CovNgPylyP3kgQh7vyHyIhPwEhDwfQh7MQs6En/kQ8kBM+JkXIcdt8RMilkfIsTxCjuURciyPkGN5hBzLI+RYHr+TDxp9UhzXsAebuRgURPeuIA9mtQ3GDVp5MKstnooFdaTCp6TQQ8C+xC8DR9SmnmjViK6Qvwxp3jxvp2Xjl6+Q7Uvln7xXSa3NtNrxo4jzzXAlgH/6Xk/gW4B9mwLdasePFPCjQT8ccv9BVH7dK/eRWnttHym3lXQs7eeXpdaGPGrna1ZoT66hjH0gv2x8W0/7Fttvjz9eeexa2xHWG6swJ8WsthHsQ6oeyYfblo9i+HGcn63W/+9Zlt+v16UhV++peiR7/4gvm/0Pj+NqPxNu1VPMajsSsOie3/fi0cfGvNpPha0acVnIFSiVevKedrUZtYtf7tU69gyGJ/F0bmo1YyjktUCozW/bWlZ5e+1aFi3bP7p8janta8rl2mtH2XDF/+Gp4ctoO75rnZfZ8/Ww4UqEiJBGsKCqvNF2fFee2yPn+qlDjrUp2Ec7M0KO1CL+35pbbQdxq+05mNU2EUIej1ltkyHk+RDyYBZyZrXNh5AHYlbbvAg5boufELE8Qo7FvXv3f5zmuVSIRVCnAAAAAElFTkSuQmCC;" vertex="1" parent="1">
          <mxGeometry y="480" width="185" height="288" as="geometry" />
        </mxCell>
        <mxCell id="arPhIB6SrukMf69pgUsO-17" value="Settings" style="shape=flexArrow;endArrow=classic;html=1;rounded=0;fontColor=default;entryX=0.5;entryY=0;entryDx=0;entryDy=0;" edge="1" parent="1" target="arPhIB6SrukMf69pgUsO-16">
          <mxGeometry width="50" height="50" relative="1" as="geometry">
            <mxPoint x="93" y="390" as="sourcePoint" />
            <mxPoint x="364.9999999999998" y="610" as="targetPoint" />
          </mxGeometry>
        </mxCell>
      </root>
    </mxGraphModel>
  </diagram>
</mxfile>
